<?xml version="1.0" encoding="UTF-8"?>
<svg xmlns="http://www.w3.org/2000/svg" xmlns:xlink="http://www.w3.org/1999/xlink" width="500pt" height="500pt" viewBox="0 0 500 500" version="1.1">
<g id="surface1">
<path style="fill:none;stroke-width:5;stroke-linecap:butt;stroke-linejoin:miter;stroke:rgb(30%,20%,50%);stroke-opacity:1;stroke-miterlimit:10;" d="M 79.476562 271.234375 L 78.28125 277.992188 L 78.28125 283.785156 L 79.714844 294.402344 L 79.476562 297.296875 L 78.996094 299.226562 L 78.042969 301.160156 L 72.554688 303.089844 L 64.199219 303.089844 L 63.484375 305.019531 L 62.292969 309.84375 L 61.097656 326.253906 L 59.664062 335.90625 L 54.652344 347.492188 L 52.984375 348.457031 L 44.628906 311.777344 L 42.003906 295.367188 L 33.175781 263.511719 L 28.164062 252.894531 L 22.671875 246.140625 L 8.351562 217.179688 L 5.964844 210.425781 L 5.011719 204.632812 L 4.773438 195.945312 L 6.207031 185.328125 L 8.59375 177.605469 L 6.921875 165.058594 L 5.726562 144.789062 L 3.339844 126.449219 L 1.671875 107.144531 L 0 77.21875 L 0.238281 58.878906 L 3.101562 42.472656 L 10.261719 36.679688 L 18.136719 35.714844 L 26.96875 36.679688 L 42.722656 33.785156 L 66.824219 32.820312 L 73.984375 33.785156 L 90.929688 40.539062 L 110.261719 56.949219 L 115.992188 65.636719 L 118.136719 75.289062 L 121.957031 76.253906 L 128.402344 81.082031 L 143.914062 101.351562 L 168.019531 135.136719 L 179.714844 155.40625 L 213.84375 208.496094 L 234.605469 250 L 255.847656 286.679688 L 263.246094 302.125 L 270.167969 312.742188 L 292.839844 337.835938 L 293.554688 339.769531 L 293.554688 345.558594 L 292.839844 347.492188 L 287.828125 356.175781 L 284.007812 367.761719 L 287.828125 404.441406 L 290.691406 419.882812 L 293.554688 423.746094 L 295.226562 436.292969 L 295.941406 438.222656 L 296.660156 447.875 L 294.75 461.390625 L 293.554688 480.695312 L 295.464844 492.277344 L 300.476562 498.070312 L 307.160156 500 L 312.410156 495.171875 L 314.796875 481.660156 L 316.707031 462.355469 L 316.945312 440.15625 L 317.898438 421.816406 L 318.855469 413.128906 L 322.910156 390.925781 L 322.433594 375.484375 L 318.855469 353.28125 L 320.046875 333.976562 L 322.671875 322.394531 L 321.71875 312.742188 L 321.480469 306.949219 L 319.808594 293.4375 L 311.457031 238.417969 L 310.261719 220.078125 L 310.980469 199.808594 L 311.457031 194.980469 L 314.558594 177.605469 L 321.480469 147.683594 L 324.582031 131.273438 L 326.253906 114.863281 L 330.550781 96.523438 L 333.652344 63.707031 L 336.515625 55.019531 L 337.707031 53.089844 L 341.289062 40.539062 L 346.300781 31.851562 L 350.359375 33.785156 L 355.847656 68.53125 L 365.632812 115.832031 L 366.824219 119.691406 L 368.734375 122.585938 L 373.269531 136.101562 L 377.328125 159.265625 L 380.191406 167.953125 L 385.917969 162.164062 L 402.625 132.238281 L 426.96875 95.558594 L 433.652344 85.90625 L 444.390625 81.082031 L 456.800781 61.777344 L 464.917969 55.984375 L 472.316406 39.574219 L 473.269531 39.574219 L 483.054688 54.054688 L 499.523438 83.011719 L 500 84.941406 L 499.761719 90.734375 L 496.179688 97.492188 L 489.261719 107.144531 L 483.769531 118.726562 L 459.664062 156.371094 L 444.628906 182.433594 L 429.355469 204.632812 L 415.75 226.832031 L 391.648438 260.617188 L 389.019531 262.546875 L 382.816406 242.277344 L 373.746094 204.632812 L 370.167969 195.945312 L 365.632812 194.015625 L 333.175781 227.800781 L 324.105469 233.589844 L 317.660156 232.625 L 314.796875 222.972656 L 314.796875 203.667969 L 313.605469 195.945312 L 314.320312 180.5 L 324.105469 132.238281 L 325.058594 117.761719 L 321.242188 109.074219 L 314.796875 98.457031 L 309.785156 82.046875 L 304.773438 68.53125 L 273.507812 12.546875 L 262.292969 0 L 261.097656 0.964844 L 257.519531 11.582031 L 252.027344 41.503906 L 247.972656 53.089844 L 234.84375 101.351562 L 230.789062 107.144531 L 216.46875 100.386719 L 215.273438 102.316406 L 213.363281 107.144531 L 202.386719 97.492188 L 188.542969 93.628906 L 179.234375 95.558594 L 168.972656 101.351562 L 162.050781 102.316406 L 154.175781 98.457031 L 135.5625 84.941406 L 119.808594 60.8125 L 97.136719 37.644531 L 84.007812 30.886719 L 77.089844 28.957031 L 59.1875 27.992188 L 36.515625 22.199219 L 31.980469 33.785156 L 29.117188 37.644531 L 10.738281 44.402344 L 6.207031 53.089844 L 4.773438 69.5 L 8.351562 129.34375 L 12.171875 165.058594 L 12.171875 178.570312 L 9.785156 192.085938 "/>
</g>
</svg>
