<?xml version="1.0" encoding="UTF-8"?>
<svg xmlns="http://www.w3.org/2000/svg" xmlns:xlink="http://www.w3.org/1999/xlink" width="500pt" height="500pt" viewBox="0 0 500 500" version="1.1">
<g id="surface1">
<path style="fill:none;stroke-width:2.5;stroke-linecap:butt;stroke-linejoin:miter;stroke:rgb(30%,20%,50%);stroke-opacity:1;stroke-miterlimit:10;" d="M 79.476562 443.4375 L 78.28125 445.105469 L 78.28125 446.539062 L 79.714844 449.164062 L 79.476562 449.878906 L 78.996094 450.359375 L 78.042969 450.835938 L 72.554688 451.3125 L 64.199219 451.3125 L 63.484375 451.789062 L 62.292969 452.984375 L 61.097656 457.039062 L 59.664062 459.425781 L 54.652344 462.292969 L 52.984375 462.53125 L 44.628906 453.460938 L 42.003906 449.402344 L 33.175781 441.527344 L 28.164062 438.902344 L 22.671875 437.230469 L 8.351562 430.070312 L 5.964844 428.402344 L 5.011719 426.96875 L 4.773438 424.820312 L 6.207031 422.195312 L 8.59375 420.285156 L 6.921875 417.183594 L 5.726562 412.171875 L 3.339844 407.636719 L 1.671875 402.863281 L 0 395.464844 L 0.238281 390.929688 L 3.101562 386.875 L 10.261719 385.441406 L 18.136719 385.203125 L 26.96875 385.441406 L 42.722656 384.726562 L 66.824219 384.488281 L 73.984375 384.726562 L 90.929688 386.394531 L 110.261719 390.453125 L 115.992188 392.601562 L 118.136719 394.988281 L 121.957031 395.226562 L 128.402344 396.421875 L 143.914062 401.433594 L 168.019531 409.785156 L 179.714844 414.796875 L 213.84375 427.921875 L 234.605469 438.1875 L 255.847656 447.253906 L 263.246094 451.074219 L 270.167969 453.699219 L 292.839844 459.90625 L 293.554688 460.382812 L 293.554688 461.8125 L 292.839844 462.292969 L 287.828125 464.4375 L 284.007812 467.304688 L 287.828125 476.371094 L 290.691406 480.191406 L 293.554688 481.144531 L 295.226562 484.25 L 295.941406 484.726562 L 296.660156 487.113281 L 294.75 490.453125 L 293.554688 495.226562 L 295.464844 498.089844 L 300.476562 499.523438 L 307.160156 500 L 312.410156 498.808594 L 314.796875 495.464844 L 316.707031 490.691406 L 316.945312 485.203125 L 317.898438 480.667969 L 318.855469 478.519531 L 322.910156 473.03125 L 322.433594 469.210938 L 318.855469 463.722656 L 320.046875 458.949219 L 322.671875 456.085938 L 321.71875 453.699219 L 321.480469 452.265625 L 319.808594 448.925781 L 311.457031 435.320312 L 310.261719 430.789062 L 310.980469 425.777344 L 311.457031 424.582031 L 314.558594 420.285156 L 321.480469 412.886719 L 324.582031 408.832031 L 326.253906 404.773438 L 330.550781 400.238281 L 333.652344 392.125 L 336.515625 389.976562 L 337.707031 389.5 L 341.289062 386.394531 L 346.300781 384.25 L 350.359375 384.726562 L 355.847656 393.316406 L 365.632812 405.011719 L 366.824219 405.964844 L 368.734375 406.683594 L 373.269531 410.023438 L 377.328125 415.75 L 380.191406 417.898438 L 385.917969 416.46875 L 402.625 409.070312 L 426.96875 400 L 433.652344 397.613281 L 444.390625 396.421875 L 456.800781 391.648438 L 464.917969 390.214844 L 472.316406 386.15625 L 473.269531 386.15625 L 483.054688 389.738281 L 499.523438 396.898438 L 500 397.375 L 499.761719 398.808594 L 496.179688 400.476562 L 489.261719 402.863281 L 483.769531 405.726562 L 459.664062 415.035156 L 444.628906 421.480469 L 429.355469 426.96875 L 415.75 432.457031 L 391.648438 440.8125 L 389.019531 441.289062 L 382.816406 436.277344 L 373.746094 426.96875 L 370.167969 424.820312 L 365.632812 424.34375 L 333.175781 432.695312 L 324.105469 434.128906 L 317.660156 433.890625 L 314.796875 431.503906 L 314.796875 426.730469 L 313.605469 424.820312 L 314.320312 421.003906 L 324.105469 409.070312 L 325.058594 405.488281 L 321.242188 403.339844 L 314.796875 400.714844 L 309.785156 396.660156 L 304.773438 393.316406 L 273.507812 379.476562 L 262.292969 376.371094 L 261.097656 376.609375 L 257.519531 379.234375 L 252.027344 386.636719 L 247.972656 389.5 L 234.84375 401.433594 L 230.789062 402.863281 L 216.46875 401.191406 L 215.273438 401.671875 L 213.363281 402.863281 L 202.386719 400.476562 L 188.542969 399.523438 L 179.234375 400 L 168.972656 401.433594 L 162.050781 401.671875 L 154.175781 400.714844 L 135.5625 397.375 L 119.808594 391.40625 L 97.136719 385.679688 L 84.007812 384.007812 L 77.089844 383.53125 L 59.1875 383.292969 L 36.515625 381.863281 L 31.980469 384.726562 L 29.117188 385.679688 L 10.738281 387.351562 L 6.207031 389.5 L 4.773438 393.554688 L 8.351562 408.351562 L 12.171875 417.183594 L 12.171875 420.523438 L 9.785156 423.867188 "/>
</g>
</svg>
